<svg id="Outline" height="512" viewBox="0 0 512 512" width="512" xmlns="http://www.w3.org/2000/svg"><path d="m200 288a24 24 0 1 0 24 24 24.027 24.027 0 0 0 -24-24zm0 32a8 8 0 1 1 8-8 8.009 8.009 0 0 1 -8 8z"/><path d="m200 224a32 32 0 1 0 -32-32 32.036 32.036 0 0 0 32 32zm0-48a16 16 0 1 1 -16 16 16.019 16.019 0 0 1 16-16z"/><path d="m288 312a32 32 0 1 0 32-32 32.036 32.036 0 0 0 -32 32zm32-16a16 16 0 1 1 -16 16 16.019 16.019 0 0 1 16-16z"/><path d="m200 464a32 32 0 1 0 -32-32 32.036 32.036 0 0 0 32 32zm0-48a16 16 0 1 1 -16 16 16.019 16.019 0 0 1 16-16z"/><path d="m112 312a32 32 0 1 0 -32 32 32.036 32.036 0 0 0 32-32zm-32 16a16 16 0 1 1 16-16 16.019 16.019 0 0 1 -16 16z"/><path d="m408 16a88 88 0 1 0 88 88 88.1 88.1 0 0 0 -88-88zm0 160a72 72 0 1 1 72-72 72.081 72.081 0 0 1 -72 72z"/><path d="m451.969 97.054-56-32a8 8 0 0 0 -11.969 6.946v64a8 8 0 0 0 11.969 6.946l56-32a8 8 0 0 0 0-13.892zm-51.969 25.16v-36.428l31.875 18.214z"/><path d="m115 259a32 32 0 1 0 -32-32 32.036 32.036 0 0 0 32 32zm0-48a16 16 0 1 1 -16 16 16.019 16.019 0 0 1 16-16z"/><path d="m284.86 259a32 32 0 1 0 -32-32 32.036 32.036 0 0 0 32 32zm0-48a16 16 0 1 1 -16 16 16.018 16.018 0 0 1 16-16z"/><path d="m115.07 428.853a32 32 0 1 0 -32-32 32.037 32.037 0 0 0 32 32zm0-48a16 16 0 1 1 -16 16 16.019 16.019 0 0 1 16-16z"/><path d="m284.93 428.853a32 32 0 1 0 -32-32 32.036 32.036 0 0 0 32 32zm0-48a16 16 0 1 1 -16 16 16.019 16.019 0 0 1 16-16z"/><path d="m488 360a8 8 0 0 0 8-8v-32a8 8 0 0 0 -8-8h-104c0-101.458-82.542-184-184-184s-184 82.542-184 184 82.542 184 184 184h288a8 8 0 0 0 8-8v-32a8 8 0 0 0 -8-8h-8v-88zm-164.193 88a184.9 184.9 0 0 0 44.193-60.984v60.984zm28.193 16v16h-16v-16zm16 0h16v16h-16zm32 0h16v16h-16zm32 0h16v16h-16zm32-16h-80v-88h80zm-64-104v-16h16v16zm32 0v-16h16v16zm-48-16v16h-2.791q1.389-7.89 2.087-16zm-352-16c0-92.636 75.364-168 168-168s168 75.364 168 168-75.364 168-168 168-168-75.364-168-168zm272 151.7v.3h16v16h-44.984a183.92 183.92 0 0 0 28.984-16.3zm176 16.3h-16v-16h16zm-16-136v-16h16v16z"/></svg>